<?xml version="1.0" encoding="utf-8"?>
<!-- Generator: Adobe Illustrator 24.3.2, SVG Export Plug-In . SVG Version: 6.00 Build 0)  -->
<!DOCTYPE svg PUBLIC "-//W3C//DTD SVG 1.1//EN" "http://www.w3.org/Graphics/SVG/1.1/DTD/svg11.dtd" [
	<!ENTITY ns_extend "http://ns.adobe.com/Extensibility/1.0/">
	<!ENTITY ns_ai "http://ns.adobe.com/AdobeIllustrator/10.0/">
	<!ENTITY ns_graphs "http://ns.adobe.com/Graphs/1.0/">
	<!ENTITY ns_vars "http://ns.adobe.com/Variables/1.0/">
	<!ENTITY ns_imrep "http://ns.adobe.com/ImageReplacement/1.0/">
	<!ENTITY ns_sfw "http://ns.adobe.com/SaveForWeb/1.0/">
	<!ENTITY ns_custom "http://ns.adobe.com/GenericCustomNamespace/1.0/">
	<!ENTITY ns_adobe_xpath "http://ns.adobe.com/XPath/1.0/">
]>
<svg version="1.1" id="Layer_1" xmlns:x="&ns_extend;" xmlns:i="&ns_ai;" xmlns:graph="&ns_graphs;"
	 xmlns="http://www.w3.org/2000/svg" xmlns:xlink="http://www.w3.org/1999/xlink" x="0px" y="0px" viewBox="0 0 50.3 35.3"
	 style="enable-background:new 0 0 50.3 35.3;" xml:space="preserve">
<style type="text/css">
	.st0{fill:#5CAA7F;}
</style>
<metadata>
	<sfw  xmlns="&ns_sfw;">
		<slices></slices>
		<sliceSourceBounds  bottomLeftOrigin="true" height="34.3" width="49.3" x="225.8" y="-267.2"></sliceSourceBounds>
	</sfw>
</metadata>
<path class="st0" d="M6.7,34.7c0,0,4.6-3.6,5.4-11.1C5.7,23.6,0.6,18.4,0.6,12c0-6.4,5.2-11.6,11.6-11.6c6.1,0,11.2,4.9,11.6,11
	c0,0.5,0,1,0,1.5C23.5,22.5,16.2,32.7,6.7,34.7z M49.9,13c0-0.5,0-1,0-1.5c-0.3-6.1-5.4-11-11.6-11c-6.4,0-11.6,5.2-11.6,11.6
	c0,6.4,5.2,11.6,11.6,11.6c-0.8,7.5-5.4,11.1-5.4,11.1C42.4,32.7,49.7,22.5,49.9,13z"/>
</svg>
